<svg width="88" height="24" viewBox="0 0 88 24" fill="none" xmlns="http://www.w3.org/2000/svg">
<path d="M6.36 18.808H13.656V23H0.888V0.375999H6.36V18.808ZM26.9213 0.0239983C29.0546 0.0239983 30.9853 0.525332 32.7133 1.528C34.4626 2.50933 35.8386 3.88533 36.8413 5.656C37.8439 7.40533 38.3453 9.38933 38.3453 11.608C38.3453 13.8267 37.8333 15.8213 36.8093 17.592C35.8066 19.3627 34.4306 20.7493 32.6813 21.752C30.9533 22.7333 29.0333 23.224 26.9213 23.224C24.8093 23.224 22.8786 22.7333 21.1293 21.752C19.4013 20.7493 18.0253 19.3627 17.0013 17.592C15.9986 15.8213 15.4973 13.8267 15.4973 11.608C15.4973 9.38933 15.9986 7.40533 17.0013 5.656C18.0253 3.88533 19.4013 2.50933 21.1293 1.528C22.8786 0.525332 24.8093 0.0239983 26.9213 0.0239983ZM26.9213 5.112C25.1293 5.112 23.6999 5.69867 22.6333 6.872C21.5879 8.024 21.0653 9.60267 21.0653 11.608C21.0653 13.592 21.5879 15.1707 22.6333 16.344C23.6999 17.5173 25.1293 18.104 26.9213 18.104C28.6919 18.104 30.1106 17.5173 31.1772 16.344C32.2439 15.1707 32.7773 13.592 32.7773 11.608C32.7773 9.624 32.2439 8.04533 31.1772 6.872C30.1319 5.69867 28.7133 5.112 26.9213 5.112ZM52.0113 0.151999C54.8486 0.151999 57.1846 0.845332 59.0193 2.232C60.8539 3.61867 61.9953 5.496 62.4433 7.864H56.6513C56.2673 7.05333 55.6806 6.41333 54.8913 5.944C54.1019 5.45333 53.1526 5.208 52.0433 5.208C50.3153 5.208 48.9286 5.79467 47.8833 6.968C46.8379 8.12 46.3153 9.688 46.3153 11.672C46.3153 13.8267 46.8593 15.48 47.9473 16.632C49.0566 17.784 50.6246 18.36 52.6513 18.36C53.9526 18.36 55.0939 18.008 56.0753 17.304C57.0566 16.5787 57.7499 15.5547 58.1553 14.232H51.2433V10.296H62.7313V15.704C62.3046 17.0267 61.6219 18.2533 60.6833 19.384C59.7446 20.5147 58.5393 21.432 57.0673 22.136C55.6166 22.84 53.9526 23.192 52.0753 23.192C49.7926 23.192 47.7979 22.712 46.0913 21.752C44.3846 20.7707 43.0619 19.4053 42.1233 17.656C41.2059 15.9067 40.7473 13.912 40.7473 11.672C40.7473 9.432 41.2059 7.43733 42.1233 5.688C43.0619 3.93867 44.3739 2.584 46.0593 1.624C47.7659 0.642665 49.7499 0.151999 52.0113 0.151999ZM76.5463 0.0239983C78.6796 0.0239983 80.6103 0.525332 82.3383 1.528C84.0876 2.50933 85.4636 3.88533 86.4663 5.656C87.4689 7.40533 87.9703 9.38933 87.9703 11.608C87.9703 13.8267 87.4583 15.8213 86.4343 17.592C85.4316 19.3627 84.0556 20.7493 82.3063 21.752C80.5783 22.7333 78.6583 23.224 76.5463 23.224C74.4343 23.224 72.5036 22.7333 70.7543 21.752C69.0263 20.7493 67.6503 19.3627 66.6263 17.592C65.6236 15.8213 65.1223 13.8267 65.1223 11.608C65.1223 9.38933 65.6236 7.40533 66.6263 5.656C67.6503 3.88533 69.0263 2.50933 70.7543 1.528C72.5036 0.525332 74.4343 0.0239983 76.5463 0.0239983ZM76.5463 5.112C74.7543 5.112 73.3249 5.69867 72.2583 6.872C71.2129 8.024 70.6903 9.60267 70.6903 11.608C70.6903 13.592 71.2129 15.1707 72.2583 16.344C73.3249 17.5173 74.7543 18.104 76.5463 18.104C78.3169 18.104 79.7356 17.5173 80.8022 16.344C81.8689 15.1707 82.4023 13.592 82.4023 11.608C82.4023 9.624 81.8689 8.04533 80.8022 6.872C79.7569 5.69867 78.3383 5.112 76.5463 5.112Z" fill="white"/>
</svg>
