<?xml version="1.0" encoding="UTF-8"?>
<svg id="Camada_2" data-name="Camada 2" xmlns="http://www.w3.org/2000/svg" viewBox="0 0 94.11 95.88">
  <defs>
    <style>
      .cls-1 {
        fill: none;
        stroke: #fff;
        stroke-linecap: round;
        stroke-linejoin: round;
        stroke-width: 5px;
      }
    </style>
  </defs>
  <g id="Camada_1-2" data-name="Camada 1">
    <path class="cls-1" d="M28.27,93.38h30c2.99,0,5.41-2.42,5.41-5.41v-17.31c0-2.99,2.42-5.41,5.41-5.41h17.11c2.99,0,5.41-2.42,5.41-5.41v-23.21c0-2.99-2.42-5.41-5.41-5.41h-17.51c-2.99,0-5.41-2.42-5.41-5.41V7.91c0-2.99-2.42-5.41-5.41-5.41h-22.42c-2.99,0-5.41,2.42-5.41,5.41v17.51c0,2.99-2.42,5.41-5.41,5.41H7.91c-2.99,0-5.41,2.42-5.41,5.41v24.19c0,2.99,2.42,5.41,5.41,5.41h10.52l8.06-8.06-6.78-6.78c-1.44-1.44-.71-3.91,1.28-4.33l30.22-6.41c2.04-.43,3.84,1.38,3.39,3.42l-6.55,29.78c-.44,1.98-2.89,2.7-4.32,1.26l-6.86-6.86-8.51,9.49"/>
  </g>
</svg>